<?xml version="1.0" encoding="utf-8"?><svg viewBox="0 0 576 512" xmlns="http://www.w3.org/2000/svg" xmlns:xlink="http://www.w3.org/1999/xlink"><style>:root>svg{display:none}:root>svg:target{display:block}</style><svg viewBox="0 0 320 512" id="angle-right" xmlns="http://www.w3.org/2000/svg"><path d="M278.6 233.4c12.5 12.5 12.5 32.8 0 45.3l-160 160c-12.5 12.5-32.8 12.5-45.3 0s-12.5-32.8 0-45.3L210.7 256 73.4 118.6c-12.5-12.5-12.5-32.8 0-45.3s32.8-12.5 45.3 0l160 160z"/></svg><svg viewBox="0 0 448 512" id="angle-up" xmlns="http://www.w3.org/2000/svg"><path d="M201.4 137.4c12.5-12.5 32.8-12.5 45.3 0l160 160c12.5 12.5 12.5 32.8 0 45.3s-32.8 12.5-45.3 0L224 205.3 86.6 342.6c-12.5 12.5-32.8 12.5-45.3 0s-12.5-32.8 0-45.3l160-160z"/></svg><svg viewBox="0 0 13 13" id="angles-right" xmlns="http://www.w3.org/2000/svg"><path d="M11.95 7.074a.818.818 0 000-1.152L7.886 1.859a.818.818 0 00-1.153 0 .818.818 0 000 1.153L10.227 6.5 6.738 9.988a.818.818 0 000 1.153.818.818 0 001.153 0l4.062-4.063zm-8.938 4.063l4.062-4.063a.818.818 0 000-1.152L3.012 1.859a.818.818 0 00-1.153 0 .818.818 0 000 1.153L5.352 6.5 1.863 9.988a.818.818 0 000 1.153.818.818 0 001.153 0zm0 0"/></svg><svg viewBox="0 0 576 512" id="cart" xmlns="http://www.w3.org/2000/svg"><path d="M24 0C10.7 0 0 10.7 0 24s10.7 24 24 24h52.1l60.3 316.5c2.2 11.3 12.1 19.5 23.6 19.5h328c13.3 0 24-10.7 24-24s-10.7-24-24-24H179.9l-9.1-48h317c14.3 0 26.9-9.5 30.8-23.3l54-192C578.3 52.3 563 32 541.8 32H122l-2.4-12.5C117.4 8.2 107.5 0 96 0H24zm152 512c26.5 0 48-21.5 48-48s-21.5-48-48-48-48 21.5-48 48 21.5 48 48 48zm336-48c0-26.5-21.5-48-48-48s-48 21.5-48 48 21.5 48 48 48 48-21.5 48-48z"/></svg><svg fill="#ff9a00" viewBox="0 0 24 24" id="check-accent" xmlns="http://www.w3.org/2000/svg"><path d="M9 16.17L4.83 12l-1.42 1.41L9 19 21 7l-1.41-1.41L9 16.17z"/></svg><svg fill="transparent" stroke="#fff" stroke-linecap="round" stroke-linejoin="round" stroke-width="1.5" viewBox="0 0 24 24" id="check-small" xmlns="http://www.w3.org/2000/svg"><path d="M5 12l5 5L20 7"/></svg><svg fill="none" stroke="currentColor" stroke-linecap="round" stroke-linejoin="round" stroke-width="1.5" viewBox="0 0 24 24" id="close" xmlns="http://www.w3.org/2000/svg"><path d="M17.25 17.25L6.75 6.75M17.25 6.75l-10.5 10.5"/></svg><svg fill="#F17E01" viewBox="0 0 24 24" id="list" xmlns="http://www.w3.org/2000/svg"><path d="M3 5v14h18V5H3zm4 2v2H5V7h2zm-2 6v-2h2v2H5zm0 2h2v2H5v-2zm14 2H9v-2h10v2zm0-4H9v-2h10v2zm0-4H9V7h10v2z"/></svg><svg viewBox="0 0 448 512" id="square-facebook" xmlns="http://www.w3.org/2000/svg"><path d="M400 32H48A48 48 0 000 80v352a48 48 0 0048 48h137.25V327.69h-63V256h63v-54.64c0-62.15 37-96.48 93.67-96.48 27.14 0 55.52 4.84 55.52 4.84v61h-31.27c-30.81 0-40.42 19.12-40.42 38.73V256h68.78l-11 71.69h-57.78V480H400a48 48 0 0048-48V80a48 48 0 00-48-48z"/></svg><svg viewBox="0 0 448 512" id="square-instagram" xmlns="http://www.w3.org/2000/svg"><path d="M224 202.66A53.34 53.34 0 10277.36 256 53.38 53.38 0 00224 202.66zm124.71-41a54 54 0 00-30.41-30.41c-21-8.29-71-6.43-94.3-6.43s-73.25-1.93-94.31 6.43a54 54 0 00-30.41 30.41c-8.28 21-6.43 71.05-6.43 94.33s-1.85 73.27 6.47 94.34a54 54 0 0030.41 30.41c21 8.29 71 6.43 94.31 6.43s73.24 1.93 94.3-6.43a54 54 0 0030.41-30.41c8.35-21 6.43-71.05 6.43-94.33s1.92-73.26-6.43-94.33zM224 338a82 82 0 1182-82 81.9 81.9 0 01-82 82zm85.38-148.3a19.14 19.14 0 1119.13-19.14 19.1 19.1 0 01-19.09 19.18zM400 32H48A48 48 0 000 80v352a48 48 0 0048 48h352a48 48 0 0048-48V80a48 48 0 00-48-48zm-17.12 290c-1.29 25.63-7.14 48.34-25.85 67s-41.4 24.63-67 25.85c-26.41 1.49-105.59 1.49-132 0-25.63-1.29-48.26-7.15-67-25.85s-24.63-41.42-25.85-67c-1.49-26.42-1.49-105.61 0-132 1.29-25.63 7.07-48.34 25.85-67s41.47-24.56 67-25.78c26.41-1.49 105.59-1.49 132 0 25.63 1.29 48.33 7.15 67 25.85s24.63 41.42 25.85 67.05c1.49 26.32 1.49 105.44 0 131.88z"/></svg><svg viewBox="0 0 448 512" id="square-twitter" xmlns="http://www.w3.org/2000/svg"><path d="M400 32H48C21.5 32 0 53.5 0 80v352c0 26.5 21.5 48 48 48h352c26.5 0 48-21.5 48-48V80c0-26.5-21.5-48-48-48zm-48.9 158.8c.2 2.8.2 5.7.2 8.5 0 86.7-66 186.6-186.6 186.6-37.2 0-71.7-10.8-100.7-29.4 5.3.6 10.4.8 15.8.8 30.7 0 58.9-10.4 81.4-28-28.8-.6-53-19.5-61.3-45.5 10.1 1.5 19.2 1.5 29.6-1.2-30-6.1-52.5-32.5-52.5-64.4v-.8c8.7 4.9 18.9 7.9 29.6 8.3a65.447 65.447 0 01-29.2-54.6c0-12.2 3.2-23.4 8.9-33.1 32.3 39.8 80.8 65.8 135.2 68.6-9.3-44.5 24-80.6 64-80.6 18.9 0 35.9 7.9 47.9 20.7 14.8-2.8 29-8.3 41.6-15.8-4.9 15.2-15.2 28-28.8 36.1 13.2-1.4 26-5.1 37.8-10.2-8.9 13.1-20.1 24.7-32.9 34z"/></svg><svg viewBox="0 0 448 512" id="vk" xmlns="http://www.w3.org/2000/svg"><path d="M31.49 63.49C0 94.982 0 145.672 0 247.04v17.92c0 101.369 0 152.059 31.49 183.549C62.982 480 113.672 480 215.04 480h17.92c101.369 0 152.059 0 183.549-31.491C448 417.019 448 366.329 448 264.96v-17.92c0-101.369 0-152.059-31.491-183.55C385.019 32 334.329 32 232.96 32h-17.92C113.671 32 62.981 32 31.49 63.49zM75.6 168.268h51.147c1.68 85.493 39.386 121.706 69.253 129.173V168.267h48.16V242c29.493-3.173 60.48-36.773 70.933-73.733h48.16a142.258 142.258 0 01-65.52 92.96 147.348 147.348 0 0176.72 93.52H321.44a92.154 92.154 0 00-77.28-66.64v66.64h-5.787c-102.106 0-160.346-70-162.773-186.48z"/></svg></svg>