<?xml version="1.0" encoding="UTF-8"?>
<svg xmlns="http://www.w3.org/2000/svg" xmlns:xlink="http://www.w3.org/1999/xlink" width="13px" height="13px" viewBox="0 0 13 13" version="1.1">
<g id="surface1">
<path style=" stroke:none;fill-rule:nonzero;fill:rgb(0%,0%,0%);fill-opacity:1;" d="M 11.949219 7.074219 C 12.265625 6.757812 12.265625 6.242188 11.949219 5.921875 L 7.886719 1.859375 C 7.570312 1.542969 7.054688 1.542969 6.734375 1.859375 C 6.417969 2.179688 6.417969 2.695312 6.734375 3.011719 L 10.226562 6.5 L 6.738281 9.988281 C 6.421875 10.304688 6.421875 10.820312 6.738281 11.140625 C 7.054688 11.457031 7.570312 11.457031 7.890625 11.140625 L 11.953125 7.078125 Z M 3.011719 11.136719 L 7.074219 7.074219 C 7.390625 6.757812 7.390625 6.242188 7.074219 5.921875 L 3.011719 1.859375 C 2.695312 1.542969 2.179688 1.542969 1.859375 1.859375 C 1.542969 2.179688 1.542969 2.695312 1.859375 3.011719 L 5.351562 6.5 L 1.863281 9.988281 C 1.546875 10.304688 1.546875 10.820312 1.863281 11.140625 C 2.179688 11.457031 2.695312 11.457031 3.015625 11.140625 Z M 3.011719 11.136719 "/>
</g>
</svg>
